<svg viewBox="0 0 16 16" xmlns="http://www.w3.org/2000/svg"><path d="m8 16c4.418278 0 8-3.581722 8-8s-3.581722-8-8-8-8 3.581722-8 8 3.581722 8 8 8zm5.3109244-7.91543704c0-.64831602-.5226921-1.17448554-1.1667233-1.17448554-.3173487 0-.5973623.12214649-.8027056.32885595-.7933719-.57314895-1.89475863-.94898432-3.10815084-.99596374l.53202581-2.50870112 1.72675043.36643949c.0186676.44160656.3826853.79865017.830707.79865017.4573555 0 .830707-.37583538.830707-.83623371s-.3733515-.8362337-.830707-.8362337c-.3266825 0-.6066961.18791768-.7373691.46979421l-1.93209376-.41341891c-.05600272-.00939588-.11200544 0-.15867437.02818766-.04666893.02818765-.07467029.07516707-.09333786.13154238l-.58802853 2.79997353c-1.24139357.03758354-2.35211414.40402303-3.15481975.99596374-.2053433-.19731357-.49469067-.32885595-.80270562-.32885595-.64403125 0-1.16672328.52616952-1.16672328 1.17448554 0 .4791901.28001359.88321313.69070018 1.07113081-.01866757.11275062-.02800136.23489711-.02800136.35704361 0 1.80400982 2.08143433 3.26037182 4.65755934 3.26037182s4.65755931-1.456362 4.65755931-3.26037182c0-.1221465-.0093338-.23489711-.0280013-.34764772.3826852-.18791769.6720326-.6013366.6720326-1.0805267zm-7.98038726.83623371c0-.46039834.37335145-.83623371.83070697-.83623371.45735553 0 .83070698.37583537.83070698.83623371 0 .46039833-.37335145.8362337-.83070698.8362337-.45735552 0-.83070697-.37583537-.83070697-.8362337zm4.63889176 2.20803283c-.56936096.5731489-1.65208017.6107325-1.9694289.6107325s-1.40940172-.0469795-1.9694289-.6107325c-.08400407-.084563-.08400407-.2255012 0-.3100642.08400408-.084563.22401087-.084563.30801495 0 .35468388.3570436 1.12005435.488586 1.67074774.488586.55069338 0 1.30673007-.1315424 1.67074773-.488586.08400408-.084563.22401087-.084563.30801495 0 .06533653.0939588.06533653.2255012-.01866757.3100642zm-.14934058-1.37179913c-.45735553 0-.83070698-.37583537-.83070698-.8362337 0-.46039834.37335145-.83623371.83070698-.83623371.45735548 0 .83070698.37583537.83070698.83623371 0 .46039833-.3733515.8362337-.83070698.8362337z" fill="#fff" fill-rule="evenodd"/></svg>